<svg width="45" height="44" viewBox="0 0 45 44" fill="none" xmlns="http://www.w3.org/2000/svg">
<path d="M15.8293 6.72936H12.4376C11.0883 6.72936 9.79428 7.26537 8.84019 8.21946C7.8861 9.17355 7.3501 10.4676 7.3501 11.8169V16.9044M37.8751 16.9044V11.8169C37.8751 10.4676 37.3391 9.17355 36.385 8.21946C35.4309 7.26537 34.1369 6.72936 32.7876 6.72936H29.3959M29.3959 37.2544H32.7876C34.1369 37.2544 35.4309 36.7184 36.385 35.7643C37.3391 34.8102 37.8751 33.5162 37.8751 32.1669V27.0794M7.3501 27.0794L7.3501 32.1669C7.3501 33.5162 7.8861 34.8102 8.84019 35.7643C9.79428 36.7184 11.0883 37.2544 12.4376 37.2544H15.8293M22.6126 38.9502V5.03353" stroke="#F7F5F9" stroke-width="3" stroke-linecap="round" stroke-linejoin="round"/>
</svg>
