<svg width="32" height="33" viewBox="0 0 32 33" fill="none" xmlns="http://www.w3.org/2000/svg">
<path d="M13.333 31.5833C14.8518 31.5833 16.083 30.3521 16.083 28.8333C16.083 27.3146 14.8518 26.0833 13.333 26.0833C11.8142 26.0833 10.583 27.3146 10.583 28.8333C10.583 30.3521 11.8142 31.5833 13.333 31.5833Z" stroke="#191B21" stroke-width="1.5"/>
<path d="M26.1665 31.5833C27.6853 31.5833 28.9165 30.3521 28.9165 28.8333C28.9165 27.3146 27.6853 26.0833 26.1665 26.0833C24.6477 26.0833 23.4165 27.3146 23.4165 28.8333C23.4165 30.3521 24.6477 31.5833 26.1665 31.5833Z" stroke="#191B21" stroke-width="1.5"/>
<path d="M1.4165 1.33334H5.08317L11.5072 21.5H26.1665" stroke="#191B21" stroke-width="1.5" stroke-linecap="round" stroke-linejoin="round"/>
<path d="M10.0771 16.9167L6.5498 5.91669H29.4793C29.6246 5.91651 29.7679 5.95088 29.8973 6.01698C30.0268 6.08307 30.1386 6.17899 30.2237 6.29682C30.3087 6.41465 30.3646 6.55102 30.3866 6.69467C30.4085 6.83832 30.3961 6.98514 30.3501 7.12302L27.294 16.2897C27.2332 16.4721 27.1166 16.6309 26.9606 16.7434C26.8047 16.8559 26.6173 16.9165 26.425 16.9167H10.0771Z" stroke="#191B21" stroke-width="1.5" stroke-linecap="round" stroke-linejoin="round"/>
</svg>
