<svg width="240" height="42" viewBox="0 0 240 42" fill="none" xmlns="http://www.w3.org/2000/svg">
<path d="M49.4902 15.0512C51.6616 15.0512 53.6798 15.6501 55.5447 16.8478C57.4096 18.0455 58.8785 19.6764 59.9515 21.7406C61.0245 23.7793 61.5609 26.0091 61.5609 28.43C61.5609 30.851 61.0245 33.0935 59.9515 35.1577C58.8785 37.1964 57.4096 38.8146 55.5447 40.0123C53.6798 41.21 51.6616 41.8089 49.4902 41.8089H41.6346C42.2733 41.3502 42.5926 40.7258 42.5926 39.9358V16.9242C42.5926 16.1342 42.2733 15.5099 41.6346 15.0512H49.4902ZM49.4902 41.4266C50.9208 41.4266 52.2364 40.8532 53.4371 39.7065C54.6634 38.5342 55.6214 36.9543 56.3111 34.9666C57.0264 32.9534 57.3841 30.7745 57.3841 28.43C57.3841 26.0856 57.0264 23.9195 56.3111 21.9317C55.6214 19.9185 54.6634 18.3386 53.4371 17.1918C52.2364 16.0196 50.9208 15.4334 49.4902 15.4334H44.317C44.6746 15.5863 45.0067 15.803 45.3133 16.0833C45.6199 16.3381 45.8753 16.6312 46.0797 16.9625C46.3096 17.2683 46.4757 17.625 46.5779 18.0328C46.7056 18.415 46.7695 18.81 46.7695 19.2177V41.4266H49.4902Z" fill="url(#paint0_linear_2001_114)"/>
<path d="M72.8479 22.314C74.0486 22.314 75.1216 22.5306 76.0668 22.9638C77.012 23.397 77.7529 23.9959 78.2894 24.7604L76.6033 26.4423C76.5011 25.9326 76.2712 25.3975 75.9135 24.8369C75.5559 24.2507 75.0961 23.7411 74.534 23.3078C73.9976 22.8746 73.4355 22.658 72.8479 22.658C72.4392 22.658 71.9921 22.76 71.5068 22.9638C71.0214 23.1422 70.5104 23.448 69.974 23.8812C69.4375 24.3144 68.9904 24.9898 68.6328 25.9072C68.3007 26.7991 68.1346 27.8439 68.1346 29.0416V39.63C68.1346 40.3945 68.4539 41.0189 69.0926 41.5031H62.9997C63.6384 41.0189 63.9577 40.3945 63.9577 39.63V24.6457C63.9577 23.8557 63.6384 23.2314 62.9997 22.7727H64.4942C65.9504 22.7727 67.0744 23.3716 67.8664 24.5693C67.943 24.6712 68.0452 24.7349 68.1729 24.7604C68.3007 24.7604 68.4028 24.7222 68.4795 24.6457C69.8335 23.0912 71.2896 22.314 72.8479 22.314Z" fill="url(#paint1_linear_2001_114)"/>
<path d="M95.4423 37.1836L95.7872 37.3365C93.769 40.4455 91.1505 42 87.9316 42C85.147 42 82.7712 41.0444 80.8041 39.1331C78.8626 37.1964 77.8918 34.8646 77.8918 32.1379C77.8918 29.4111 78.8626 27.0921 80.8041 25.1809C82.7712 23.2441 85.147 22.2758 87.9316 22.2758C88.8769 22.2758 89.7838 22.4541 90.6523 22.8109C91.5209 23.1677 92.2618 23.6774 92.8749 24.3399C93.5136 25.0025 93.9351 25.818 94.1395 26.7863C94.3694 27.7292 94.3311 28.7995 94.0245 29.9973C93.8201 30.6853 93.4497 31.3352 92.9132 31.9468C92.4023 32.5329 91.7764 33.0298 91.0355 33.4375C90.2947 33.8198 89.5411 34.1638 88.7747 34.4696C88.0338 34.7754 87.2291 35.0303 86.3605 35.2341C85.5175 35.438 84.8149 35.5909 84.2529 35.6928C83.6909 35.7948 83.1416 35.8712 82.6052 35.9222C83.0905 37.4767 83.8058 38.7509 84.7511 39.7447C85.6963 40.7131 86.7565 41.2228 87.9316 41.2737C91.0228 41.5286 93.5263 40.1652 95.4423 37.1836ZM82.0687 32.1379C82.0687 33.3356 82.222 34.4951 82.5285 35.6164C83.0395 35.5145 83.5632 35.3998 84.0996 35.2724C84.6361 35.1195 85.2876 34.8774 86.054 34.5461C86.8459 34.1893 87.5484 33.7816 88.1615 33.3229C88.8002 32.8642 89.3878 32.2653 89.9243 31.5263C90.4607 30.7618 90.8312 29.9208 91.0355 29.0034C91.2144 28.3918 91.2527 27.7292 91.1505 27.0157C91.0483 26.2767 90.8695 25.5886 90.614 24.9515C90.3841 24.3144 90.0009 23.792 89.4644 23.3843C88.9279 22.9511 88.3021 22.7345 87.5867 22.7345C86.5904 22.7345 85.7091 23.0658 84.9427 23.7283C84.2018 24.3909 83.627 25.2319 83.2183 26.2512C82.8351 27.2451 82.5413 28.2516 82.3369 29.271C82.1581 30.2648 82.0687 31.2205 82.0687 32.1379Z" fill="url(#paint2_linear_2001_114)"/>
<path d="M113.763 31.1058V39.63C113.763 40.3945 114.082 41.0189 114.721 41.5031H113.763C112.434 41.5031 111.4 41.1081 110.659 40.3181C109.944 39.5281 109.586 38.5342 109.586 37.3365V37.0307C108.845 38.7381 107.862 39.9995 106.635 40.815C105.435 41.605 104.17 42 102.842 42C102.535 42 102.241 41.9745 101.96 41.9236C100.376 41.7197 99.0608 41.1081 98.0134 40.0887C96.9915 39.0694 96.5827 37.7315 96.7871 36.0751C96.8893 35.387 97.0809 34.7627 97.3619 34.202C97.6685 33.6159 98.0644 33.119 98.5498 32.7113C99.0352 32.278 99.5334 31.9085 100.044 31.6027C100.581 31.2969 101.207 31.0294 101.922 30.8C102.637 30.5706 103.276 30.3795 103.838 30.2266C104.4 30.0737 105.051 29.9336 105.792 29.8061C106.354 29.6787 106.814 29.5768 107.172 29.5003C108.424 29.1945 108.986 28.2516 108.858 26.6717C108.832 26.2385 108.717 25.7925 108.513 25.3338C108.334 24.8496 108.091 24.4164 107.785 24.0341C107.478 23.6264 107.095 23.2951 106.635 23.0403C106.201 22.7854 105.728 22.658 105.217 22.658C104.604 22.658 104.004 22.8109 103.416 23.1167C102.829 23.4225 102.292 23.8685 101.807 24.4546C101.322 25.0152 100.9 25.6778 100.542 26.4423L98.6648 24.684C99.5589 23.9449 100.581 23.3588 101.73 22.9256C102.906 22.4924 104.068 22.2758 105.217 22.2758C107.874 22.2758 109.956 23.0403 111.464 24.5693C112.996 26.0728 113.763 28.2516 113.763 31.1058ZM109.586 34.5461V32.1379C109.586 30.8637 109.509 29.6915 109.356 28.6212C108.922 29.2582 107.759 29.7679 105.869 30.1502C104.106 30.4815 102.727 31.2077 101.73 32.329C100.734 33.4248 100.185 34.7372 100.083 36.2662C100.006 37.1072 100.044 37.8334 100.198 38.445C100.351 39.0567 100.619 39.5663 101.002 39.9741C101.411 40.3563 101.935 40.6111 102.573 40.7386C105.077 41.2482 107.019 40.4837 108.398 38.445C109.19 37.2983 109.586 35.9986 109.586 34.5461Z" fill="url(#paint3_linear_2001_114)"/>
<path d="M141.775 41.5031C142.413 41.0189 142.733 40.3945 142.733 39.63V32.9024C142.733 29.4876 142.337 26.9265 141.545 25.2191C140.753 23.5117 139.616 22.658 138.134 22.658C137.445 22.658 136.704 22.9256 135.912 23.4607C135.145 23.9959 134.532 24.8496 134.072 26.0218C133.791 26.7354 133.779 27.4617 134.034 28.2007C134.519 29.5258 134.762 30.9656 134.762 32.5201V39.63C134.762 40.3945 135.081 41.0189 135.72 41.5031H129.627C130.266 41.0189 130.585 40.3945 130.585 39.63V32.9024C130.585 29.4876 130.189 26.9265 129.397 25.2191C128.605 23.5117 127.469 22.658 125.987 22.658C125.553 22.658 125.093 22.7472 124.607 22.9256C124.148 23.104 123.649 23.4098 123.113 23.843C122.576 24.2762 122.129 24.9388 121.772 25.8307C121.44 26.7226 121.274 27.7929 121.274 29.0416V39.63C121.274 40.3945 121.593 41.0189 122.232 41.5031H116.139C116.777 41.0189 117.097 40.3945 117.097 39.63V24.6457C117.097 23.8557 116.777 23.2314 116.139 22.7727H117.633C118.144 22.7727 118.629 22.8746 119.089 23.0785C119.575 23.2569 119.996 23.5117 120.354 23.843C120.737 24.1743 121.044 24.5693 121.274 25.028C122.704 23.2187 124.275 22.314 125.987 22.314C128.823 22.314 131.058 23.397 132.693 25.5631C133.383 24.5948 134.264 23.8175 135.337 23.2314C136.435 22.6198 137.368 22.314 138.134 22.314C139.897 22.314 141.443 22.76 142.771 23.6519C144.125 24.5438 145.147 25.7543 145.837 27.2833C146.552 28.8123 146.91 30.5579 146.91 32.5201V39.63C146.91 40.3945 147.229 41.0189 147.868 41.5031H141.775Z" fill="url(#paint4_linear_2001_114)"/>
<path d="M155.39 41.8089H149.297C149.936 41.3502 150.255 40.7258 150.255 39.9358V16.9242C150.255 16.1342 149.936 15.5099 149.297 15.0512H158.226C160.065 15.0512 161.623 15.701 162.901 17.0007C164.204 18.2749 164.855 19.8293 164.855 21.6642C164.855 22.7345 164.599 23.7411 164.089 24.684C163.603 25.6268 162.939 26.4041 162.096 27.0157C161.253 27.6273 160.308 28.0096 159.26 28.1625C160.691 28.6212 161.764 29.7552 162.479 31.5645L165.698 39.9358C166.005 40.7258 166.567 41.3502 167.384 41.8089H161.291C161.751 41.3502 161.828 40.7258 161.521 39.9358L157.574 29.7297C157.165 28.7613 156.463 28.2771 155.467 28.2771H154.432V39.9358C154.432 40.7258 154.751 41.3502 155.39 41.8089ZM154.432 15.4334H151.979C152.72 15.7647 153.308 16.2744 153.742 16.9625C154.202 17.625 154.432 18.3768 154.432 19.2177V27.8949C156.144 27.8949 157.612 27.2833 158.839 26.0601C160.065 24.8369 160.678 23.3716 160.678 21.6642C160.678 19.9313 160.065 18.466 158.839 17.2683C157.612 16.045 156.144 15.4334 154.432 15.4334Z" fill="url(#paint5_linear_2001_114)"/>
<path d="M169.417 25.1809C171.308 23.2441 173.581 22.2758 176.238 22.2758C178.895 22.2758 181.169 23.2441 183.059 25.1809C184.949 27.0921 185.895 29.4111 185.895 32.1379C185.895 34.8646 184.949 37.1964 183.059 39.1331C181.169 41.0444 178.895 42 176.238 42C173.581 42 171.308 41.0444 169.417 39.1331C167.527 37.1964 166.581 34.8646 166.581 32.1379C166.581 29.4111 167.527 27.0921 169.417 25.1809ZM181.679 32.9788C182.037 30.405 181.807 28.137 180.99 26.1747C180.172 24.187 179.01 23.0785 177.503 22.8491C175.995 22.6198 174.578 23.3333 173.249 24.9898C171.946 26.6207 171.116 28.7231 170.758 31.2969C170.426 33.8708 170.669 36.1515 171.486 38.1392C172.304 40.1015 173.466 41.1973 174.974 41.4266C175.97 41.5795 176.941 41.3119 177.886 40.6239C178.831 39.9104 179.636 38.8783 180.3 37.5276C180.99 36.177 181.45 34.6608 181.679 32.9788Z" fill="url(#paint6_linear_2001_114)"/>
<path d="M190.224 25.1809C192.114 23.2441 194.388 22.2758 197.045 22.2758C199.701 22.2758 201.975 23.2441 203.866 25.1809C205.756 27.0921 206.701 29.4111 206.701 32.1379C206.701 34.8646 205.756 37.1964 203.866 39.1331C201.975 41.0444 199.701 42 197.045 42C194.388 42 192.114 41.0444 190.224 39.1331C188.333 37.1964 187.388 34.8646 187.388 32.1379C187.388 29.4111 188.333 27.0921 190.224 25.1809ZM202.486 32.9788C202.844 30.405 202.614 28.137 201.796 26.1747C200.979 24.187 199.816 23.0785 198.309 22.8491C196.802 22.6198 195.384 23.3333 194.056 24.9898C192.753 26.6207 191.922 28.7231 191.565 31.2969C191.233 33.8708 191.475 36.1515 192.293 38.1392C193.11 40.1015 194.273 41.1973 195.78 41.4266C196.776 41.5795 197.747 41.3119 198.692 40.6239C199.638 39.9104 200.442 38.8783 201.106 37.5276C201.796 36.177 202.256 34.6608 202.486 32.9788Z" fill="url(#paint7_linear_2001_114)"/>
<path d="M233.907 41.5031C234.546 41.0189 234.865 40.3945 234.865 39.63V32.9024C234.865 29.4876 234.469 26.9265 233.677 25.2191C232.885 23.5117 231.748 22.658 230.267 22.658C229.577 22.658 228.836 22.9256 228.044 23.4607C227.278 23.9959 226.665 24.8496 226.205 26.0218C225.924 26.7354 225.911 27.4617 226.167 28.2007C226.652 29.5258 226.895 30.9656 226.895 32.5201V39.63C226.895 40.3945 227.214 41.0189 227.853 41.5031H221.76C222.398 41.0189 222.718 40.3945 222.718 39.63V32.9024C222.718 29.4876 222.322 26.9265 221.53 25.2191C220.738 23.5117 219.601 22.658 218.119 22.658C217.685 22.658 217.225 22.7472 216.74 22.9256C216.28 23.104 215.782 23.4098 215.245 23.843C214.709 24.2762 214.262 24.9388 213.904 25.8307C213.572 26.7226 213.406 27.7929 213.406 29.0416V39.63C213.406 40.3945 213.725 41.0189 214.364 41.5031H208.271C208.91 41.0189 209.229 40.3945 209.229 39.63V24.6457C209.229 23.8557 208.91 23.2314 208.271 22.7727H209.766C210.277 22.7727 210.762 22.8746 211.222 23.0785C211.707 23.2569 212.129 23.5117 212.486 23.843C212.87 24.1743 213.176 24.5693 213.406 25.028C214.837 23.2187 216.408 22.314 218.119 22.314C220.955 22.314 223.19 23.397 224.825 25.5631C225.515 24.5948 226.396 23.8175 227.469 23.2314C228.568 22.6198 229.5 22.314 230.267 22.314C232.029 22.314 233.575 22.76 234.903 23.6519C236.257 24.5438 237.279 25.7543 237.969 27.2833C238.684 28.8123 239.042 30.5579 239.042 32.5201V39.63C239.042 40.3945 239.361 41.0189 240 41.5031H233.907Z" fill="url(#paint8_linear_2001_114)"/>
<path d="M0 15.0299C0 15.0299 5.86795 12.3609 8.68186 9.55631C11.7626 6.48582 14.5652 0 14.5652 0C14.5652 0 17.4955 6.59707 20.6568 9.55631C23.623 12.3328 29.6323 14.5292 29.6323 14.5292C29.6323 14.5292 23.2522 17.0989 20.3575 20.0085C17.3077 23.074 15.0671 29.5591 15.0671 29.5591C15.0671 29.5591 11.8787 22.9812 8.68186 20.0085C5.80376 17.3323 0 15.0299 0 15.0299Z" fill="url(#paint9_linear_2001_114)"/>
<path d="M23.3512 30.9625C23.3512 30.9625 26.3453 29.6006 27.7811 28.1696C29.353 26.6029 30.7831 23.2935 30.7831 23.2935C30.7831 23.2935 32.2782 26.6597 33.8913 28.1696C35.4048 29.5863 38.471 30.707 38.471 30.707C38.471 30.707 35.2156 32.0182 33.7385 33.5028C32.1824 35.067 31.0391 38.376 31.0391 38.376C31.0391 38.376 29.4123 35.0196 27.7811 33.5028C26.3126 32.1373 23.3512 30.9625 23.3512 30.9625Z" fill="url(#paint10_linear_2001_114)"/>
<defs>
<linearGradient id="paint0_linear_2001_114" x1="0" y1="21" x2="240" y2="21" gradientUnits="userSpaceOnUse">
<stop stop-color="#715CC5"/>
<stop offset="1" stop-color="#3C2696"/>
</linearGradient>
<linearGradient id="paint1_linear_2001_114" x1="0" y1="21" x2="240" y2="21" gradientUnits="userSpaceOnUse">
<stop stop-color="#715CC5"/>
<stop offset="1" stop-color="#3C2696"/>
</linearGradient>
<linearGradient id="paint2_linear_2001_114" x1="0" y1="21" x2="240" y2="21" gradientUnits="userSpaceOnUse">
<stop stop-color="#715CC5"/>
<stop offset="1" stop-color="#3C2696"/>
</linearGradient>
<linearGradient id="paint3_linear_2001_114" x1="0" y1="21" x2="240" y2="21" gradientUnits="userSpaceOnUse">
<stop stop-color="#715CC5"/>
<stop offset="1" stop-color="#3C2696"/>
</linearGradient>
<linearGradient id="paint4_linear_2001_114" x1="0" y1="21" x2="240" y2="21" gradientUnits="userSpaceOnUse">
<stop stop-color="#715CC5"/>
<stop offset="1" stop-color="#3C2696"/>
</linearGradient>
<linearGradient id="paint5_linear_2001_114" x1="0" y1="21" x2="240" y2="21" gradientUnits="userSpaceOnUse">
<stop stop-color="#715CC5"/>
<stop offset="1" stop-color="#3C2696"/>
</linearGradient>
<linearGradient id="paint6_linear_2001_114" x1="0" y1="21" x2="240" y2="21" gradientUnits="userSpaceOnUse">
<stop stop-color="#715CC5"/>
<stop offset="1" stop-color="#3C2696"/>
</linearGradient>
<linearGradient id="paint7_linear_2001_114" x1="0" y1="21" x2="240" y2="21" gradientUnits="userSpaceOnUse">
<stop stop-color="#715CC5"/>
<stop offset="1" stop-color="#3C2696"/>
</linearGradient>
<linearGradient id="paint8_linear_2001_114" x1="0" y1="21" x2="240" y2="21" gradientUnits="userSpaceOnUse">
<stop stop-color="#715CC5"/>
<stop offset="1" stop-color="#3C2696"/>
</linearGradient>
<linearGradient id="paint9_linear_2001_114" x1="0" y1="21" x2="240" y2="21" gradientUnits="userSpaceOnUse">
<stop stop-color="#715CC5"/>
<stop offset="1" stop-color="#3C2696"/>
</linearGradient>
<linearGradient id="paint10_linear_2001_114" x1="0" y1="21" x2="240" y2="21" gradientUnits="userSpaceOnUse">
<stop stop-color="#715CC5"/>
<stop offset="1" stop-color="#3C2696"/>
</linearGradient>
</defs>
</svg>
