<svg width="69" height="68" viewBox="0 0 69 68" fill="none" xmlns="http://www.w3.org/2000/svg">
<g clip-path="url(#clip0_58_898)">
<path d="M55.6818 29.1055C54.9879 18.361 47.5161 8 33.8125 8C21.2789 8 11.6134 17.3161 11.1015 29.749C4.244 31.8826 0.5 39.2211 0.5 44.5625C0.5 52.7866 7.33475 60 15.125 60H25.6875C25.903 60 26.1097 59.9144 26.262 59.762C26.4144 59.6097 26.5 59.403 26.5 59.1875C26.5 58.972 26.4144 58.7653 26.262 58.613C26.1097 58.4606 25.903 58.375 25.6875 58.375H15.125C8.19925 58.375 2.125 51.9205 2.125 44.5625C2.125 39.6046 6.47025 30.75 15.125 30.75H17.5625C17.778 30.75 17.9847 30.6644 18.137 30.512C18.2894 30.3597 18.375 30.153 18.375 29.9375C18.375 29.722 18.2894 29.5153 18.137 29.363C17.9847 29.2106 17.778 29.125 17.5625 29.125H15.125C14.2979 29.125 13.5162 29.2176 12.7541 29.3509C13.3911 19.6171 20.7897 9.625 33.8125 9.625C47.768 9.625 54.125 20.5759 54.125 30.75V33.1875C54.125 33.403 54.2106 33.6097 54.363 33.762C54.5153 33.9144 54.722 34 54.9375 34C55.153 34 55.3597 33.9144 55.512 33.762C55.6644 33.6097 55.75 33.403 55.75 33.1875V30.7354C60.6559 31.2733 67.125 36.5382 67.125 44.5625C67.125 50.7798 61.1271 58.375 54.125 58.375H41.9375C36.6758 58.375 34.625 56.3242 34.625 51.0625V28.7724L41.2517 35.3861C41.3266 35.4638 41.4162 35.5258 41.5152 35.5686C41.6143 35.6113 41.7209 35.6338 41.8288 35.6349C41.9366 35.636 42.0436 35.6156 42.1436 35.5749C42.2435 35.5342 42.3343 35.474 42.4106 35.3978C42.487 35.3216 42.5475 35.231 42.5885 35.1312C42.6295 35.0314 42.6502 34.9245 42.6494 34.8166C42.6486 34.7087 42.6264 34.6021 42.5839 34.5029C42.5415 34.4037 42.4797 34.3139 42.4022 34.2389L35.1531 27.0044C34.1879 26.0424 33.4388 26.0424 32.4751 27.0044L25.226 34.2389C25.078 34.3921 24.9961 34.5974 24.998 34.8104C24.9998 35.0234 25.0853 35.2272 25.2359 35.3779C25.3865 35.5285 25.5903 35.6139 25.8034 35.6158C26.0164 35.6176 26.2216 35.5358 26.3749 35.3878L33 28.7724V51.0625C33 57.244 35.756 60 41.9375 60H54.125C62.0014 60 68.75 51.511 68.75 44.5625C68.75 36.1661 61.8876 29.5995 55.6818 29.1055Z" fill="black"/>
</g>
<defs>
<clipPath id="clip0_58_898">
<rect width="68" height="68" fill="white" transform="translate(0.5)"/>
</clipPath>
</defs>
</svg>
